<svg width="680" height="460" viewBox="0 0 680 460" xmlns="http://www.w3.org/2000/svg" font-family="Helvetica, Arial, sans-serif">
  <defs>
    <marker id="arrow" viewBox="0 0 10 10" refX="8" refY="5" markerWidth="6" markerHeight="6" orient="auto-start-reverse">
      <path d="M2 1L8 5L2 9" fill="none" stroke="#5F5E5A" stroke-width="1.5" stroke-linecap="round" stroke-linejoin="round"/>
    </marker>
  </defs>
  <rect width="680" height="460" fill="#ffffff"/>

  <rect x="270" y="20" width="140" height="44" rx="8" fill="#F1EFE8" stroke="#5F5E5A" stroke-width="0.5"/>
  <text x="340" y="47" text-anchor="middle" font-size="14" font-weight="600" fill="#2C2C2A">Farmer</text>

  <line x1="340" y1="64" x2="340" y2="100" stroke="#5F5E5A" stroke-width="1.5" marker-end="url(#arrow)"/>
  <text x="352" y="86" font-size="12" fill="#5F5E5A">leaf photo</text>

  <rect x="240" y="100" width="200" height="56" rx="8" fill="#9FE1CB" stroke="#0F6E56" stroke-width="0.5"/>
  <text x="340" y="122" text-anchor="middle" font-size="14" font-weight="600" fill="#04342C">Diagnosis Agent</text>
  <text x="340" y="140" text-anchor="middle" font-size="12" fill="#085041">MobileNetV2 + CBAM tool</text>

  <line x1="340" y1="156" x2="340" y2="192" stroke="#5F5E5A" stroke-width="1.5" marker-end="url(#arrow)"/>
  <text x="352" y="178" font-size="12" fill="#5F5E5A">disease + confidence</text>

  <rect x="240" y="192" width="200" height="56" rx="8" fill="#CECBF6" stroke="#534AB7" stroke-width="0.5"/>
  <text x="340" y="214" text-anchor="middle" font-size="14" font-weight="600" fill="#26215C">Advisory Agent</text>
  <text x="340" y="232" text-anchor="middle" font-size="12" fill="#3C3489">calls MCP knowledge base</text>

  <line x1="440" y1="220" x2="488" y2="220" stroke="#5F5E5A" stroke-width="1.5" marker-end="url(#arrow)"/>
  <rect x="490" y="196" width="150" height="48" rx="8" fill="#CECBF6" stroke="#534AB7" stroke-width="0.5"/>
  <text x="565" y="216" text-anchor="middle" font-size="14" font-weight="600" fill="#26215C">MCP server</text>
  <text x="565" y="234" text-anchor="middle" font-size="12" fill="#3C3489">treatment + dosage tools</text>

  <line x1="340" y1="248" x2="340" y2="284" stroke="#5F5E5A" stroke-width="1.5" marker-end="url(#arrow)"/>
  <text x="352" y="270" font-size="12" fill="#5F5E5A">treatment plan</text>

  <rect x="230" y="284" width="220" height="64" rx="8" fill="#F5C4B3" stroke="#993C1D" stroke-width="0.5"/>
  <text x="340" y="306" text-anchor="middle" font-size="14" font-weight="600" fill="#4A1B0C">Farmer-facing Agent</text>
  <text x="340" y="324" text-anchor="middle" font-size="12" fill="#712B13">plain language + security</text>
  <text x="340" y="340" text-anchor="middle" font-size="12" fill="#712B13">guardrail</text>

  <line x1="340" y1="348" x2="340" y2="384" stroke="#5F5E5A" stroke-width="1.5" marker-end="url(#arrow)"/>
  <text x="352" y="370" font-size="12" fill="#5F5E5A">simple advice</text>

  <rect x="270" y="384" width="140" height="44" rx="8" fill="#F1EFE8" stroke="#5F5E5A" stroke-width="0.5"/>
  <text x="340" y="411" text-anchor="middle" font-size="14" font-weight="600" fill="#2C2C2A">Farmer</text>
</svg>
